<svg width="20" height="20" viewBox="0 0 20 20" fill="none" xmlns="http://www.w3.org/2000/svg">
<g clip-path="url(#clip0_13_57)">
<path d="M11.262 17.5H6.96201C6.66213 17.4992 6.37482 17.3794 6.16315 17.167C5.95148 16.9546 5.83274 16.6669 5.83301 16.367V10.298C5.83327 9.99811 5.95252 9.71059 6.16456 9.49855C6.37661 9.2865 6.66413 9.16726 6.96401 9.16699H13.033C13.333 9.16726 13.6206 9.28647 13.8328 9.49849C14.045 9.7105 14.1645 9.99802 14.165 10.298V14.598C14.1653 14.7621 14.1332 14.9247 14.0705 15.0763C14.0079 15.228 13.916 15.3659 13.8 15.482L12.145 17.137C11.9096 17.369 11.5925 17.4993 11.262 17.5V17.5ZM6.96201 9.99999C6.92261 9.99999 6.8836 10.0078 6.8472 10.0228C6.81081 10.0379 6.77773 10.06 6.74988 10.0879C6.72202 10.1157 6.69992 10.1488 6.68484 10.1852C6.66977 10.2216 6.66201 10.2606 6.66201 10.3V16.367C6.66201 16.4064 6.66977 16.4454 6.68484 16.4818C6.69992 16.5182 6.72202 16.5513 6.74988 16.5791C6.77773 16.607 6.81081 16.6291 6.8472 16.6442C6.8836 16.6592 6.92261 16.667 6.96201 16.667H11.262C11.3176 16.6675 11.3727 16.657 11.4242 16.6361C11.4757 16.6151 11.5226 16.5842 11.562 16.545L13.216 14.891C13.2555 14.8517 13.2867 14.8049 13.3078 14.7534C13.3289 14.7019 13.3395 14.6467 13.339 14.591V10.291C13.339 10.2516 13.3312 10.2126 13.3162 10.1762C13.3011 10.1398 13.279 10.1067 13.2511 10.0789C13.2233 10.051 13.1902 10.0289 13.1538 10.0138C13.1174 9.99875 13.0784 9.99099 13.039 9.99099L6.96201 9.99999Z" fill="#05AC73"/>
<path d="M9.33223 15.529C9.27664 15.5295 9.2215 15.519 9.17 15.4981C9.1185 15.4772 9.07167 15.4462 9.03223 15.407L7.25923 13.629C7.18741 13.5497 7.14884 13.4458 7.1515 13.3388C7.15415 13.2318 7.19784 13.13 7.2735 13.0543C7.34917 12.9786 7.45104 12.9349 7.55801 12.9323C7.66499 12.9296 7.7689 12.9682 7.84823 13.04L9.31123 14.503L12.1312 11.281C12.1665 11.2374 12.2103 11.2014 12.2599 11.1751C12.3094 11.1488 12.3638 11.1328 12.4197 11.128C12.4756 11.1232 12.5319 11.1297 12.5852 11.1472C12.6385 11.1647 12.6878 11.1928 12.73 11.2297C12.7722 11.2667 12.8065 11.3118 12.8309 11.3623C12.8553 11.4129 12.8692 11.4678 12.8718 11.5239C12.8745 11.5799 12.8658 11.6359 12.8462 11.6885C12.8267 11.7411 12.7968 11.7893 12.7582 11.83L9.64623 15.388C9.60873 15.4311 9.56271 15.466 9.51108 15.4904C9.45945 15.5148 9.40333 15.5283 9.34623 15.53H9.33223V15.529Z" fill="#05AC73"/>
<path d="M17.917 20H2.083C1.5308 19.9992 1.00144 19.7795 0.610973 19.389C0.220507 18.9986 0.000793585 18.4692 0 17.917L0 3.74999C0.000793585 3.19779 0.220507 2.66843 0.610973 2.27797C1.00144 1.8875 1.5308 1.66779 2.083 1.66699H17.917C18.4692 1.66779 18.9986 1.8875 19.389 2.27797C19.7795 2.66843 19.9992 3.19779 20 3.74999V17.917C19.9992 18.4692 19.7795 18.9986 19.389 19.389C18.9986 19.7795 18.4692 19.9992 17.917 20V20ZM2.083 2.49999C1.75164 2.50052 1.43401 2.63239 1.1997 2.86669C0.965395 3.101 0.833529 3.41863 0.833 3.74999V17.917C0.833529 18.2484 0.965395 18.566 1.1997 18.8003C1.43401 19.0346 1.75164 19.1665 2.083 19.167H17.917C18.2484 19.1665 18.566 19.0346 18.8003 18.8003C19.0346 18.566 19.1665 18.2484 19.167 17.917V3.74999C19.1665 3.41863 19.0346 3.101 18.8003 2.86669C18.566 2.63239 18.2484 2.50052 17.917 2.49999H2.083Z" fill="#05AC73"/>
<path d="M19.5831 6.66602H0.417093C0.310161 6.66078 0.20934 6.61461 0.135513 6.53707C0.0616856 6.45954 0.0205078 6.35658 0.0205078 6.24952C0.0205078 6.14246 0.0616856 6.0395 0.135513 5.96196C0.20934 5.88443 0.310161 5.83826 0.417093 5.83302H19.5831C19.6395 5.83025 19.6959 5.83898 19.7488 5.85866C19.8018 5.87834 19.8502 5.90858 19.8911 5.94752C19.932 5.98647 19.9645 6.03332 19.9868 6.08524C20.009 6.13715 20.0205 6.19304 20.0205 6.24952C20.0205 6.306 20.009 6.36189 19.9868 6.4138C19.9645 6.46572 19.932 6.51257 19.8911 6.55151C19.8502 6.59046 19.8018 6.62069 19.7488 6.64038C19.6959 6.66006 19.6395 6.66878 19.5831 6.66602Z" fill="#05AC73"/>
<path d="M4.58399 4.16697C4.4734 4.16697 4.36733 4.12304 4.28913 4.04484C4.21093 3.96663 4.16699 3.86057 4.16699 3.74997V0.416971C4.17223 0.310039 4.2184 0.209218 4.29594 0.135391C4.37347 0.0615635 4.47643 0.0203857 4.58349 0.0203857C4.69055 0.0203857 4.79351 0.0615635 4.87105 0.135391C4.94858 0.209218 4.99475 0.310039 4.99999 0.416971V3.74997C4.99999 3.86039 4.9562 3.96631 4.87821 4.04448C4.80022 4.12266 4.69441 4.16671 4.58399 4.16697V4.16697Z" fill="#05AC73"/>
<path d="M15.417 4.16703C15.3623 4.16703 15.308 4.15624 15.2574 4.13529C15.2068 4.11433 15.1609 4.08361 15.1221 4.04489C15.0834 4.00617 15.0527 3.9602 15.0318 3.90961C15.0108 3.85901 15 3.80479 15 3.75003V0.417029C14.9972 0.360616 15.006 0.30423 15.0257 0.251291C15.0453 0.198351 15.0756 0.149962 15.1145 0.109059C15.1535 0.0681555 15.2003 0.0355904 15.2522 0.0133392C15.3041 -0.0089121 15.36 -0.0203857 15.4165 -0.0203857C15.473 -0.0203857 15.5289 -0.0089121 15.5808 0.0133392C15.6327 0.0355904 15.6796 0.0681555 15.7185 0.109059C15.7575 0.149962 15.7877 0.198351 15.8074 0.251291C15.8271 0.30423 15.8358 0.360616 15.833 0.417029V3.75003C15.833 3.86045 15.7892 3.96636 15.7112 4.04454C15.6332 4.12271 15.5274 4.16676 15.417 4.16703Z" fill="#05AC73"/>
</g>
<defs>
<clipPath id="clip0_13_57">
<rect width="20" height="20" fill="white"/>
</clipPath>
</defs>
</svg>
