<svg xmlns="http://www.w3.org/2000/svg" width="23.617" height="23.617" viewBox="0 0 23.617 23.617">
  <path id="Edit" d="M31.417,18.872v8.363a4.187,4.187,0,0,1-4.182,4.182H12.182A4.187,4.187,0,0,1,8,27.236V12.181A4.187,4.187,0,0,1,12.182,8h8.363a.836.836,0,0,1,0,1.673H12.182a2.512,2.512,0,0,0-2.509,2.509V27.236a2.512,2.512,0,0,0,2.509,2.509H27.236a2.512,2.512,0,0,0,2.509-2.509V18.872a.836.836,0,1,1,1.673,0ZM14.1,19.954,25.808,8.245a.836.836,0,0,1,1.183,0l4.182,4.182a.836.836,0,0,1,0,1.183L19.464,25.318a.836.836,0,0,1-.591.245H14.691a.836.836,0,0,1-.836-.836V20.545a.836.836,0,0,1,.245-.591Zm10.974-8.608,3,3L29.4,13.018l-3-3ZM15.527,23.89h3l8.363-8.363-3-3-8.363,8.363Z" transform="translate(-7.9 -7.9)" fill="#fff" stroke="#0ebe7f" stroke-width="0.2"/>
</svg>