<svg width="14" height="20" viewBox="0 0 14 20" fill="none" xmlns="http://www.w3.org/2000/svg">
<g clip-path="url(#clip0_13_77)">
<path d="M13.48 19.206H0.794V0.794049H9.508V3.96805C9.508 4.07414 9.55014 4.17588 9.62516 4.25089C9.70017 4.32591 9.80191 4.36805 9.908 4.36805H13.083V19.6061C13.0761 19.6623 13.0812 19.7193 13.098 19.7735C13.1147 19.8276 13.1428 19.8775 13.1804 19.9199C13.2179 19.9624 13.264 19.9964 13.3157 20.0196C13.3673 20.0429 13.4233 20.0549 13.48 20.0549C13.5367 20.0549 13.5927 20.0429 13.6443 20.0196C13.696 19.9964 13.7421 19.9624 13.7796 19.9199C13.8172 19.8775 13.8453 19.8276 13.862 19.7735C13.8788 19.7193 13.8839 19.6623 13.877 19.6061V3.97105C13.8774 3.86556 13.836 3.76421 13.762 3.68905L10.187 0.115049C10.1492 0.0777961 10.1043 0.0484425 10.0551 0.0286987C10.0058 0.00895479 9.95308 -0.000784214 9.9 4.93217e-05H0.4C0.293913 4.93217e-05 0.192172 0.0421922 0.117157 0.117207C0.0421424 0.192221 0 0.293963 0 0.400049V19.6C0 19.7061 0.0421424 19.8079 0.117157 19.8829C0.192172 19.9579 0.293913 20 0.4 20H13.48C13.5769 19.9881 13.6661 19.9412 13.7307 19.868C13.7954 19.7949 13.8311 19.7007 13.8311 19.6031C13.8311 19.5054 13.7954 19.4112 13.7307 19.3381C13.6661 19.2649 13.5769 19.218 13.48 19.206V19.206ZM10.3 1.35305L12.52 3.57105H10.3V1.35305Z" fill="#05AC73"/>
<path d="M8.33383 6.66609V5.07909C8.33383 4.97301 8.29169 4.87126 8.21667 4.79625C8.14166 4.72124 8.03992 4.67909 7.93383 4.67909H6.74383V3.49509C6.74383 3.38901 6.70169 3.28726 6.62667 3.21225C6.55166 3.13724 6.44992 3.09509 6.34383 3.09509H4.76183C4.65574 3.09509 4.554 3.13724 4.47899 3.21225C4.40397 3.28726 4.36183 3.38901 4.36183 3.49509V4.68509H3.17783C3.07175 4.68509 2.97 4.72724 2.89499 4.80225C2.81997 4.87726 2.77783 4.97901 2.77783 5.08509V6.67209C2.77783 6.77818 2.81997 6.87992 2.89499 6.95494C2.97 7.02995 3.07175 7.07209 3.17783 7.07209H4.36783V8.26209C4.36783 8.36818 4.40997 8.46992 4.48499 8.54494C4.56 8.61995 4.66175 8.66209 4.76783 8.66209H6.35483C6.46092 8.66209 6.56266 8.61995 6.63767 8.54494C6.71269 8.46992 6.75483 8.36818 6.75483 8.26209V7.07209H7.94483C8.05005 7.06921 8.14989 7.02497 8.2227 6.94897C8.29552 6.87297 8.33545 6.77133 8.33383 6.66609V6.66609ZM7.53983 6.26609H6.34983C6.24375 6.26609 6.142 6.30824 6.06699 6.38325C5.99198 6.45826 5.94983 6.56001 5.94983 6.66609V7.85609H5.15583V6.66609C5.15583 6.56001 5.11369 6.45826 5.03868 6.38325C4.96366 6.30824 4.86192 6.26609 4.75583 6.26609H3.56583V5.47209H4.75583C4.86192 5.47209 4.96366 5.42995 5.03868 5.35494C5.11369 5.27992 5.15583 5.17818 5.15583 5.07209V3.88209H5.94983V5.07209C5.94983 5.17818 5.99198 5.27992 6.06699 5.35494C6.142 5.42995 6.24375 5.47209 6.34983 5.47209H7.53983V6.26609Z" fill="#05AC73"/>
<path d="M2.80583 11.1901H8.75383C8.81006 11.197 8.86712 11.1919 8.92124 11.1751C8.97535 11.1583 9.02528 11.1302 9.06772 11.0927C9.11016 11.0552 9.14414 11.009 9.16742 10.9574C9.19069 10.9057 9.20273 10.8497 9.20273 10.7931C9.20273 10.7364 9.19069 10.6804 9.16742 10.6287C9.14414 10.5771 9.11016 10.531 9.06772 10.4934C9.02528 10.4559 8.97535 10.4278 8.92124 10.411C8.86712 10.3942 8.81006 10.3891 8.75383 10.3961H2.80583C2.7496 10.3891 2.69254 10.3942 2.63842 10.411C2.58431 10.4278 2.53438 10.4559 2.49194 10.4934C2.4495 10.531 2.41552 10.5771 2.39224 10.6287C2.36897 10.6804 2.35693 10.7364 2.35693 10.7931C2.35693 10.8497 2.36897 10.9057 2.39224 10.9574C2.41552 11.009 2.4495 11.0552 2.49194 11.0927C2.53438 11.1302 2.58431 11.1583 2.63842 11.1751C2.69254 11.1919 2.7496 11.197 2.80583 11.1901V11.1901Z" fill="#05AC73"/>
<path d="M10.8769 16.111H7.05388C6.99765 16.1041 6.94058 16.1092 6.88647 16.126C6.83236 16.1428 6.78243 16.1709 6.73999 16.2084C6.69755 16.2459 6.66357 16.2921 6.64029 16.3437C6.61702 16.3954 6.60498 16.4514 6.60498 16.508C6.60498 16.5647 6.61702 16.6207 6.64029 16.6724C6.66357 16.724 6.69755 16.7701 6.73999 16.8077C6.78243 16.8452 6.83236 16.8733 6.88647 16.8901C6.94058 16.9069 6.99765 16.912 7.05388 16.905H10.8769C10.9331 16.912 10.9902 16.9069 11.0443 16.8901C11.0984 16.8733 11.1483 16.8452 11.1908 16.8077C11.2332 16.7701 11.2672 16.724 11.2905 16.6724C11.3137 16.6207 11.3258 16.5647 11.3258 16.508C11.3258 16.4514 11.3137 16.3954 11.2905 16.3437C11.2672 16.2921 11.2332 16.2459 11.1908 16.2084C11.1483 16.1709 11.0984 16.1428 11.0443 16.126C10.9902 16.1092 10.9331 16.1041 10.8769 16.111V16.111Z" fill="#05AC73"/>
<path d="M5.78083 16.111H2.80583C2.7496 16.1041 2.69254 16.1092 2.63842 16.126C2.58431 16.1428 2.53438 16.1709 2.49194 16.2084C2.4495 16.2459 2.41552 16.2921 2.39224 16.3437C2.36897 16.3954 2.35693 16.4514 2.35693 16.508C2.35693 16.5647 2.36897 16.6207 2.39224 16.6724C2.41552 16.724 2.4495 16.7701 2.49194 16.8077C2.53438 16.8452 2.58431 16.8733 2.63842 16.8901C2.69254 16.9069 2.7496 16.912 2.80583 16.905H5.78083C5.83706 16.912 5.89412 16.9069 5.94824 16.8901C6.00235 16.8733 6.05228 16.8452 6.09472 16.8077C6.13716 16.7701 6.17114 16.724 6.19442 16.6724C6.21769 16.6207 6.22973 16.5647 6.22973 16.508C6.22973 16.4514 6.21769 16.3954 6.19442 16.3437C6.17114 16.2921 6.13716 16.2459 6.09472 16.2084C6.05228 16.1709 6.00235 16.1428 5.94824 16.126C5.89412 16.1092 5.83706 16.1041 5.78083 16.111Z" fill="#05AC73"/>
<path d="M8.75283 14.606C8.75128 14.5518 8.73905 14.4984 8.71683 14.449C8.69461 14.3995 8.66285 14.3549 8.62337 14.3178C8.58389 14.2806 8.53746 14.2516 8.48674 14.2324C8.43603 14.2133 8.38202 14.2043 8.32783 14.206H2.80583C2.7496 14.1991 2.69254 14.2042 2.63842 14.221C2.58431 14.2377 2.53438 14.2658 2.49194 14.3034C2.4495 14.3409 2.41552 14.387 2.39224 14.4387C2.36897 14.4903 2.35693 14.5463 2.35693 14.603C2.35693 14.6597 2.36897 14.7157 2.39224 14.7673C2.41552 14.819 2.4495 14.8651 2.49194 14.9026C2.53438 14.9402 2.58431 14.9683 2.63842 14.985C2.69254 15.0018 2.7496 15.0069 2.80583 15H8.32883C8.43711 15.0033 8.54232 14.9637 8.62167 14.89C8.70103 14.8163 8.74815 14.7142 8.75283 14.606Z" fill="#05AC73"/>
<path d="M10.8792 14.206H9.60417C9.54794 14.1991 9.49088 14.2042 9.43677 14.221C9.38265 14.2377 9.33272 14.2658 9.29028 14.3034C9.24784 14.3409 9.21386 14.387 9.19059 14.4387C9.16731 14.4903 9.15527 14.5463 9.15527 14.603C9.15527 14.6597 9.16731 14.7157 9.19059 14.7673C9.21386 14.819 9.24784 14.8651 9.29028 14.9026C9.33272 14.9402 9.38265 14.9683 9.43677 14.985C9.49088 15.0018 9.54794 15.0069 9.60417 15H10.8792C10.9354 15.0069 10.9925 15.0018 11.0466 14.985C11.1007 14.9683 11.1506 14.9402 11.1931 14.9026C11.2355 14.8651 11.2695 14.819 11.2928 14.7673C11.316 14.7157 11.3281 14.6597 11.3281 14.603C11.3281 14.5463 11.316 14.4903 11.2928 14.4387C11.2695 14.387 11.2355 14.3409 11.1931 14.3034C11.1506 14.2658 11.1007 14.2377 11.0466 14.221C10.9925 14.2042 10.9354 14.1991 10.8792 14.206V14.206Z" fill="#05AC73"/>
<path d="M10.4528 12.7021C10.4512 12.6479 10.439 12.5945 10.4168 12.5451C10.3945 12.4956 10.3628 12.451 10.3233 12.4138C10.2838 12.3767 10.2374 12.3477 10.1867 12.3285C10.136 12.3093 10.0819 12.3003 10.0278 12.3021H6.20476C6.14852 12.2951 6.09146 12.3002 6.03735 12.317C5.98324 12.3338 5.93331 12.3619 5.89087 12.3994C5.84843 12.437 5.81444 12.4831 5.79117 12.5347C5.7679 12.5864 5.75586 12.6424 5.75586 12.6991C5.75586 12.7557 5.7679 12.8117 5.79117 12.8634C5.81444 12.915 5.84843 12.9612 5.89087 12.9987C5.93331 13.0362 5.98324 13.0643 6.03735 13.0811C6.09146 13.0979 6.14852 13.103 6.20476 13.0961H10.0278C10.1362 13.0996 10.2417 13.0602 10.3212 12.9864C10.4008 12.9127 10.4481 12.8105 10.4528 12.7021Z" fill="#05AC73"/>
<path d="M2.80583 13.0961H4.92983C4.98606 13.103 5.04312 13.0979 5.09724 13.0811C5.15135 13.0643 5.20128 13.0362 5.24372 12.9987C5.28616 12.9612 5.32014 12.915 5.34342 12.8634C5.36669 12.8117 5.37873 12.7557 5.37873 12.6991C5.37873 12.6424 5.36669 12.5864 5.34342 12.5347C5.32014 12.4831 5.28616 12.437 5.24372 12.3994C5.20128 12.3619 5.15135 12.3338 5.09724 12.317C5.04312 12.3002 4.98606 12.2951 4.92983 12.3021H2.80583C2.7496 12.2951 2.69254 12.3002 2.63842 12.317C2.58431 12.3338 2.53438 12.3619 2.49194 12.3994C2.4495 12.437 2.41552 12.4831 2.39224 12.5347C2.36897 12.5864 2.35693 12.6424 2.35693 12.6991C2.35693 12.7557 2.36897 12.8117 2.39224 12.8634C2.41552 12.915 2.4495 12.9612 2.49194 12.9987C2.53438 13.0362 2.58431 13.0643 2.63842 13.0811C2.69254 13.0979 2.7496 13.103 2.80583 13.0961Z" fill="#05AC73"/>
</g>
<defs>
<clipPath id="clip0_13_77">
<rect width="13.877" height="20" fill="white"/>
</clipPath>
</defs>
</svg>
