<svg xmlns="http://www.w3.org/2000/svg" width="13.877" height="20" viewBox="0 0 13.877 20">
  <g id="Layer_5" data-name="Layer 5" transform="translate(-11 -4)">
    <path id="Path_37147" data-name="Path 37147" d="M24.48,23.206H11.794V4.794h8.714V7.968a.4.4,0,0,0,.4.4h3.175l0,15.238a.4.4,0,1,0,.794,0l0-15.635a.4.4,0,0,0-.115-.282L21.187,4.115A.4.4,0,0,0,20.9,4H11.4a.4.4,0,0,0-.4.4V23.6a.4.4,0,0,0,.4.4H24.48a.4.4,0,0,0,0-.794ZM21.3,5.353,23.52,7.571H21.3Z" transform="translate(0)" fill="#858ea9"/>
    <path id="Path_37148" data-name="Path 37148" d="M29.556,15.571V13.984a.4.4,0,0,0-.4-.4h-1.19V12.4a.4.4,0,0,0-.4-.4H25.984a.4.4,0,0,0-.4.4v1.19H24.4a.4.4,0,0,0-.4.4v1.587a.4.4,0,0,0,.4.4h1.19v1.19a.4.4,0,0,0,.4.4h1.587a.4.4,0,0,0,.4-.4v-1.19h1.19A.4.4,0,0,0,29.556,15.571Zm-.794-.4h-1.19a.4.4,0,0,0-.4.4v1.19h-.794v-1.19a.4.4,0,0,0-.4-.4h-1.19v-.794h1.19a.4.4,0,0,0,.4-.4v-1.19h.794v1.19a.4.4,0,0,0,.4.4h1.19Z" transform="translate(-10.222 -4.905)" fill="#858ea9"/>
    <path id="Path_37150" data-name="Path 37150" d="M17.425,30.794h5.948a.4.4,0,1,0,0-.794H17.425a.4.4,0,1,0,0,.794Z" transform="translate(-3.619 -15.604)" fill="#858ea9"/>
    <path id="Path_37154" data-name="Path 37154" d="M32.248,42H28.425a.4.4,0,1,0,0,.794h3.823a.4.4,0,1,0,0-.794Z" transform="translate(-10.371 -21.889)" fill="#858ea9"/>
    <path id="Path_37155" data-name="Path 37155" d="M20.4,42H17.425a.4.4,0,1,0,0,.794H20.4a.4.4,0,1,0,0-.794Z" transform="translate(-3.619 -21.889)" fill="#858ea9"/>
    <path id="Path_37156" data-name="Path 37156" d="M23.372,38.4a.412.412,0,0,0-.425-.4H17.425a.4.4,0,1,0,0,.794h5.523A.412.412,0,0,0,23.372,38.4Z" transform="translate(-3.619 -19.794)" fill="#858ea9"/>
    <path id="Path_37157" data-name="Path 37157" d="M35.7,38H34.425a.4.4,0,1,0,0,.794H35.7a.4.4,0,1,0,0-.794Z" transform="translate(-13.821 -19.794)" fill="#858ea9"/>
    <path id="Path_37158" data-name="Path 37158" d="M30.673,34.4a.412.412,0,0,0-.425-.4H26.425a.4.4,0,1,0,0,.794h3.823A.412.412,0,0,0,30.673,34.4Z" transform="translate(-9.22 -17.698)" fill="#858ea9"/>
    <path id="Path_37159" data-name="Path 37159" d="M17.425,34.794h2.124a.4.4,0,1,0,0-.794H17.425a.4.4,0,1,0,0,.794Z" transform="translate(-3.619 -17.698)" fill="#858ea9"/>
  </g>
</svg>
