<svg width="21" height="21" viewBox="0 0 21 21" fill="none" xmlns="http://www.w3.org/2000/svg">
<g clip-path="url(#clip0_13_88)">
<path d="M20.1999 7.90394L16.9429 5.19194V3.01094C16.9463 2.92563 16.9324 2.84051 16.9021 2.7607C16.8718 2.68088 16.8257 2.60801 16.7665 2.54645C16.7073 2.48489 16.6364 2.43592 16.5578 2.40246C16.4793 2.36901 16.3948 2.35177 16.3094 2.35177C16.224 2.35177 16.1395 2.36901 16.061 2.40246C15.9824 2.43592 15.9114 2.48489 15.8523 2.54645C15.7931 2.60801 15.747 2.68088 15.7167 2.7607C15.6864 2.84051 15.6725 2.92563 15.6759 3.01094V4.13394L11.5059 0.66194C11.1644 0.377313 10.7339 0.221436 10.2894 0.221436C9.84485 0.221436 9.41437 0.377313 9.07289 0.66194L0.378892 7.90394C0.249466 8.01149 0.168063 8.16604 0.152592 8.3336C0.13712 8.50117 0.188846 8.66801 0.296392 8.79744C0.403937 8.92687 0.558491 9.00827 0.726055 9.02374C0.893619 9.03921 1.06047 8.98749 1.18989 8.87994L9.88389 1.63394C9.99777 1.53919 10.1412 1.48731 10.2894 1.48731C10.4375 1.48731 10.581 1.53919 10.6949 1.63394L17.8949 7.63394V18.5339C17.8949 18.7021 17.8281 18.8633 17.7092 18.9822C17.5903 19.1011 17.429 19.1679 17.2609 19.1679H14.0919V12.1979C14.0919 11.694 13.8917 11.2108 13.5354 10.8544C13.1791 10.4981 12.6958 10.2979 12.1919 10.2979H8.39189C7.88798 10.2979 7.40471 10.4981 7.04839 10.8544C6.69207 11.2108 6.49189 11.694 6.49189 12.1979V19.1679H3.31989C3.15174 19.1679 2.99048 19.1011 2.87159 18.9822C2.75269 18.8633 2.68589 18.7021 2.68589 18.5339V10.9339C2.67939 10.7703 2.6098 10.6155 2.49171 10.502C2.37361 10.3885 2.21618 10.3251 2.05239 10.3251C1.8886 10.3251 1.73117 10.3885 1.61308 10.502C1.49498 10.6155 1.4254 10.7703 1.41889 10.9339V18.5339C1.41889 19.0379 1.61907 19.5211 1.97539 19.8774C2.33171 20.2338 2.81498 20.4339 3.31889 20.4339H17.2589C17.7628 20.4339 18.2461 20.2338 18.6024 19.8774C18.9587 19.5211 19.1589 19.0379 19.1589 18.5339V8.68994L19.3869 8.87994C19.451 8.93319 19.5249 8.9733 19.6045 8.99797C19.6841 9.02264 19.7678 9.0314 19.8507 9.02374C19.9337 9.01608 20.0143 8.99215 20.0881 8.95332C20.1618 8.91449 20.2271 8.86152 20.2804 8.79744C20.3336 8.73335 20.3737 8.65941 20.3984 8.57982C20.4231 8.50024 20.4319 8.41657 20.4242 8.3336C20.4165 8.25063 20.3926 8.16999 20.3538 8.09626C20.3149 8.02254 20.262 7.95719 20.1979 7.90394H20.1999ZM7.75289 19.1639V12.1939C7.75289 12.0258 7.81969 11.8645 7.93859 11.7456C8.05748 11.6267 8.21874 11.5599 8.38689 11.5599H12.1869C12.355 11.5599 12.5163 11.6267 12.6352 11.7456C12.7541 11.8645 12.8209 12.0258 12.8209 12.1939V19.1639H7.75289Z" fill="#05AC73" stroke="white" stroke-width="0.3"/>
<path d="M9.65597 15.9969C10.0061 15.9969 10.29 15.713 10.29 15.3629C10.29 15.0127 10.0061 14.7289 9.65597 14.7289C9.30582 14.7289 9.02197 15.0127 9.02197 15.3629C9.02197 15.713 9.30582 15.9969 9.65597 15.9969Z" fill="#05AC73" stroke="white" stroke-width="0.3"/>
</g>
<defs>
<clipPath id="clip0_13_88">
<rect width="20.59" height="20.582" fill="white"/>
</clipPath>
</defs>
</svg>
