<svg width="17" height="20" viewBox="0 0 17 20" fill="none" xmlns="http://www.w3.org/2000/svg">
<g clip-path="url(#clip0_13_45)">
<path d="M10.714 19.206H0.794V0.794049H11.508V3.96805C11.508 4.07414 11.5501 4.17588 11.6252 4.25089C11.7002 4.32591 11.8019 4.36805 11.908 4.36805H15.083V6.90005C15.0761 6.95628 15.0812 7.01334 15.098 7.06745C15.1147 7.12157 15.1428 7.1715 15.1804 7.21394C15.2179 7.25638 15.264 7.29036 15.3157 7.31364C15.3673 7.33691 15.4233 7.34895 15.48 7.34895C15.5367 7.34895 15.5927 7.33691 15.6443 7.31364C15.696 7.29036 15.7421 7.25638 15.7796 7.21394C15.8172 7.1715 15.8453 7.12157 15.862 7.06745C15.8788 7.01334 15.8839 6.95628 15.877 6.90005V3.96805C15.8774 3.86256 15.836 3.76121 15.762 3.68605L12.187 0.115049C12.1492 0.0777961 12.1043 0.0484425 12.0551 0.0286987C12.0058 0.00895479 11.9531 -0.000784214 11.9 4.93217e-05H0.4C0.293913 4.93217e-05 0.192172 0.0421922 0.117157 0.117207C0.0421424 0.192221 0 0.293963 0 0.400049V19.6C0 19.7061 0.0421424 19.8079 0.117157 19.8829C0.192172 19.9579 0.293913 20 0.4 20H10.714C10.8109 19.9881 10.9001 19.9412 10.9647 19.868C11.0294 19.7949 11.0651 19.7007 11.0651 19.6031C11.0651 19.5054 11.0294 19.4112 10.9647 19.3381C10.9001 19.2649 10.8109 19.218 10.714 19.206V19.206ZM12.3 1.35305L14.52 3.57105H12.3V1.35305Z" fill="#05AC73"/>
<path d="M10.7152 6.74605V5.15905C10.7152 5.05296 10.673 4.95122 10.598 4.87621C10.523 4.80119 10.4213 4.75905 10.3152 4.75905H9.12518V3.57505C9.12518 3.46896 9.08304 3.36722 9.00802 3.29221C8.93301 3.21719 8.83127 3.17505 8.72518 3.17505H7.14318C7.03709 3.17505 6.93535 3.21719 6.86034 3.29221C6.78532 3.36722 6.74318 3.46896 6.74318 3.57505V4.76505H5.55918C5.45309 4.76505 5.35135 4.80719 5.27634 4.88221C5.20132 4.95722 5.15918 5.05896 5.15918 5.16505V6.75205C5.15918 6.85814 5.20132 6.95988 5.27634 7.03489C5.35135 7.10991 5.45309 7.15205 5.55918 7.15205H6.74918V8.34205C6.74918 8.44814 6.79132 8.54988 6.86634 8.62489C6.94135 8.69991 7.04309 8.74205 7.14918 8.74205H8.73618C8.84227 8.74205 8.94401 8.69991 9.01902 8.62489C9.09404 8.54988 9.13618 8.44814 9.13618 8.34205V7.15205H10.3262C10.4314 7.14917 10.5312 7.10493 10.6041 7.02893C10.6769 6.95293 10.7168 6.85129 10.7152 6.74605V6.74605ZM9.92118 6.34605H8.73118C8.62509 6.34605 8.52335 6.38819 8.44834 6.46321C8.37332 6.53822 8.33118 6.63996 8.33118 6.74605V7.93605H7.53718V6.74605C7.53718 6.63996 7.49504 6.53822 7.42002 6.46321C7.34501 6.38819 7.24327 6.34605 7.13718 6.34605H5.94718V5.55205H7.13718C7.24327 5.55205 7.34501 5.50991 7.42002 5.43489C7.49504 5.35988 7.53718 5.25814 7.53718 5.15205V3.96205H8.33118V5.15205C8.33118 5.25814 8.37332 5.35988 8.44834 5.43489C8.52335 5.50991 8.62509 5.55205 8.73118 5.55205H9.92118V6.34605Z" fill="#05AC73"/>
<path d="M16.2698 8.60409H11.5108C11.4596 8.60249 11.4086 8.61105 11.3607 8.62927C11.3129 8.64749 11.2691 8.67501 11.2319 8.71025C11.1947 8.74548 11.1648 8.78774 11.1441 8.83457C11.1233 8.88139 11.112 8.93187 11.1108 8.98309V10.4981C11.112 10.5493 11.1233 10.5998 11.1441 10.6466C11.1648 10.6934 11.1947 10.7357 11.2319 10.7709C11.2691 10.8062 11.3129 10.8337 11.3607 10.8519C11.4086 10.8701 11.4596 10.8787 11.5108 10.8771H11.9108V18.0771C11.9338 18.5879 12.1528 19.0701 12.5224 19.4235C12.892 19.7768 13.3835 19.974 13.8948 19.974C14.4061 19.974 14.8977 19.7768 15.2673 19.4235C15.6368 19.0701 15.8559 18.5879 15.8788 18.0771V10.8771H16.2788C16.33 10.8787 16.3811 10.8701 16.4289 10.8519C16.4768 10.8337 16.5206 10.8062 16.5578 10.7709C16.595 10.7357 16.6248 10.6934 16.6456 10.6466C16.6664 10.5998 16.6777 10.5493 16.6788 10.4981V8.98309C16.6777 8.93108 16.6661 8.87983 16.6448 8.83239C16.6235 8.78495 16.5928 8.74228 16.5547 8.70692C16.5165 8.67156 16.4716 8.64424 16.4227 8.62657C16.3738 8.60891 16.3218 8.60126 16.2698 8.60409V8.60409ZM13.4918 10.1191V9.36109H14.2858V10.1191H13.4918ZM11.9048 9.36109H12.6988V10.1191H11.9048V9.36109ZM12.6988 13.1491H13.4928V16.9371H12.6988V13.1491ZM15.0798 18.0741C15.0645 18.3795 14.9324 18.6673 14.7108 18.8781C14.4892 19.0888 14.1951 19.2063 13.8893 19.2063C13.5836 19.2063 13.2895 19.0888 13.0679 18.8781C12.8463 18.6673 12.7142 18.3795 12.6988 18.0741V17.6951H13.8888C13.94 17.6967 13.9911 17.6881 14.0389 17.6699C14.0868 17.6517 14.1306 17.6242 14.1678 17.5889C14.205 17.5537 14.2348 17.5114 14.2556 17.4646C14.2764 17.4178 14.2877 17.3673 14.2888 17.3161V12.7711C14.2877 12.7199 14.2764 12.6694 14.2556 12.6226C14.2348 12.5757 14.205 12.5335 14.1678 12.4983C14.1306 12.463 14.0868 12.4355 14.0389 12.4173C13.9911 12.3991 13.94 12.3905 13.8888 12.3921H12.6988V10.8771H15.0798V18.0741ZM15.8738 10.1191H15.0798V9.36109H15.8738V10.1191Z" fill="#05AC73"/>
<path d="M2.78093 11.27H8.33693C8.39316 11.2769 8.45022 11.2718 8.50434 11.2551C8.55845 11.2383 8.60838 11.2102 8.65082 11.1727C8.69326 11.1351 8.72724 11.089 8.75052 11.0373C8.77379 10.9857 8.78583 10.9297 8.78583 10.873C8.78583 10.8164 8.77379 10.7604 8.75052 10.7087C8.72724 10.657 8.69326 10.6109 8.65082 10.5734C8.60838 10.5359 8.55845 10.5078 8.50434 10.491C8.45022 10.4742 8.39316 10.4691 8.33693 10.476H2.78093C2.7247 10.4691 2.66764 10.4742 2.61352 10.491C2.55941 10.5078 2.50948 10.5359 2.46704 10.5734C2.4246 10.6109 2.39062 10.657 2.36734 10.7087C2.34407 10.7604 2.33203 10.8164 2.33203 10.873C2.33203 10.9297 2.34407 10.9857 2.36734 11.0373C2.39062 11.089 2.4246 11.1351 2.46704 11.1727C2.50948 11.2102 2.55941 11.2383 2.61352 11.2551C2.66764 11.2718 2.7247 11.2769 2.78093 11.27V11.27Z" fill="#05AC73"/>
<path d="M10.3172 16.1911H6.74919C6.69296 16.1842 6.6359 16.1893 6.58179 16.2061C6.52767 16.2229 6.47774 16.2509 6.4353 16.2885C6.39286 16.326 6.35888 16.3721 6.3356 16.4238C6.31233 16.4754 6.30029 16.5315 6.30029 16.5881C6.30029 16.6448 6.31233 16.7008 6.3356 16.7524C6.35888 16.8041 6.39286 16.8502 6.4353 16.8877C6.47774 16.9253 6.52767 16.9534 6.58179 16.9702C6.6359 16.9869 6.69296 16.992 6.74919 16.9851H10.3202C10.3764 16.992 10.4335 16.9869 10.4876 16.9702C10.5417 16.9534 10.5916 16.9253 10.6341 16.8877C10.6765 16.8502 10.7105 16.8041 10.7338 16.7524C10.7571 16.7008 10.7691 16.6448 10.7691 16.5881C10.7691 16.5315 10.7571 16.4754 10.7338 16.4238C10.7105 16.3721 10.6765 16.326 10.6341 16.2885C10.5916 16.2509 10.5417 16.2229 10.4876 16.2061C10.4335 16.1893 10.3764 16.1842 10.3202 16.1911H10.3172Z" fill="#05AC73"/>
<path d="M5.55593 16.1911H2.78093C2.7247 16.1842 2.66764 16.1893 2.61352 16.2061C2.55941 16.2229 2.50948 16.2509 2.46704 16.2885C2.4246 16.326 2.39062 16.3721 2.36734 16.4238C2.34407 16.4754 2.33203 16.5315 2.33203 16.5881C2.33203 16.6448 2.34407 16.7008 2.36734 16.7524C2.39062 16.8041 2.4246 16.8502 2.46704 16.8877C2.50948 16.9253 2.55941 16.9534 2.61352 16.9702C2.66764 16.9869 2.7247 16.992 2.78093 16.9851H5.55893C5.61516 16.992 5.67222 16.9869 5.72634 16.9702C5.78045 16.9534 5.83038 16.9253 5.87282 16.8877C5.91526 16.8502 5.94924 16.8041 5.97252 16.7524C5.99579 16.7008 6.00783 16.6448 6.00783 16.5881C6.00783 16.5315 5.99579 16.4754 5.97252 16.4238C5.94924 16.3721 5.91526 16.326 5.87282 16.2885C5.83038 16.2509 5.78045 16.2229 5.72634 16.2061C5.67222 16.1893 5.61516 16.1842 5.55893 16.1911H5.55593Z" fill="#05AC73"/>
<path d="M8.33293 14.6861C8.33293 14.58 8.29079 14.4783 8.21577 14.4032C8.14076 14.3282 8.03902 14.2861 7.93293 14.2861H2.78093C2.7247 14.2792 2.66764 14.2843 2.61352 14.301C2.55941 14.3178 2.50948 14.3459 2.46704 14.3834C2.4246 14.421 2.39062 14.4671 2.36734 14.5188C2.34407 14.5704 2.33203 14.6264 2.33203 14.6831C2.33203 14.7397 2.34407 14.7957 2.36734 14.8474C2.39062 14.8991 2.4246 14.9452 2.46704 14.9827C2.50948 15.0202 2.55941 15.0483 2.61352 15.0651C2.66764 15.0819 2.7247 15.087 2.78093 15.0801H7.93993C8.04377 15.0783 8.14283 15.0362 8.21618 14.9626C8.28952 14.8891 8.33139 14.7899 8.33293 14.6861Z" fill="#05AC73"/>
<path d="M10.3171 14.2861H9.13005C9.07382 14.2792 9.01676 14.2843 8.96264 14.301C8.90853 14.3178 8.8586 14.3459 8.81616 14.3834C8.77372 14.421 8.73974 14.4671 8.71646 14.5188C8.69319 14.5704 8.68115 14.6264 8.68115 14.6831C8.68115 14.7397 8.69319 14.7957 8.71646 14.8474C8.73974 14.8991 8.77372 14.9452 8.81616 14.9827C8.8586 15.0202 8.90853 15.0483 8.96264 15.0651C9.01676 15.0819 9.07382 15.087 9.13005 15.0801H10.32C10.3763 15.087 10.4333 15.0819 10.4875 15.0651C10.5416 15.0483 10.5915 15.0202 10.6339 14.9827C10.6764 14.9452 10.7104 14.8991 10.7336 14.8474C10.7569 14.7957 10.7689 14.7397 10.7689 14.6831C10.7689 14.6264 10.7569 14.5704 10.7336 14.5188C10.7104 14.4671 10.6764 14.421 10.6339 14.3834C10.5915 14.3459 10.5416 14.3178 10.4875 14.301C10.4333 14.2843 10.3763 14.2792 10.32 14.2861H10.3171Z" fill="#05AC73"/>
<path d="M9.91976 12.7811C9.91976 12.675 9.87762 12.5732 9.8026 12.4982C9.72759 12.4232 9.62584 12.3811 9.51976 12.3811H5.95476C5.89853 12.3741 5.84146 12.3792 5.78735 12.396C5.73324 12.4128 5.68331 12.4409 5.64087 12.4784C5.59843 12.516 5.56444 12.5621 5.54117 12.6137C5.5179 12.6654 5.50586 12.7214 5.50586 12.7781C5.50586 12.8347 5.5179 12.8907 5.54117 12.9424C5.56444 12.994 5.59843 13.0402 5.64087 13.0777C5.68331 13.1152 5.73324 13.1433 5.78735 13.1601C5.84146 13.1769 5.89853 13.182 5.95476 13.1751H9.52576C9.62977 13.1735 9.72909 13.1315 9.80264 13.0579C9.8762 12.9844 9.91821 12.8851 9.91976 12.7811V12.7811Z" fill="#05AC73"/>
<path d="M2.78093 13.1751H4.76493C4.82116 13.182 4.87822 13.1769 4.93234 13.1601C4.98645 13.1433 5.03638 13.1152 5.07882 13.0777C5.12126 13.0402 5.15524 12.994 5.17852 12.9424C5.20179 12.8907 5.21383 12.8347 5.21383 12.7781C5.21383 12.7214 5.20179 12.6654 5.17852 12.6137C5.15524 12.5621 5.12126 12.516 5.07882 12.4784C5.03638 12.4409 4.98645 12.4128 4.93234 12.396C4.87822 12.3792 4.82116 12.3741 4.76493 12.3811H2.78093C2.7247 12.3741 2.66764 12.3792 2.61352 12.396C2.55941 12.4128 2.50948 12.4409 2.46704 12.4784C2.4246 12.516 2.39062 12.5621 2.36734 12.6137C2.34407 12.6654 2.33203 12.7214 2.33203 12.7781C2.33203 12.8347 2.34407 12.8907 2.36734 12.9424C2.39062 12.994 2.4246 13.0402 2.46704 13.0777C2.50948 13.1152 2.55941 13.1433 2.61352 13.1601C2.66764 13.1769 2.7247 13.182 2.78093 13.1751V13.1751Z" fill="#05AC73"/>
</g>
<defs>
<clipPath id="clip0_13_45">
<rect width="16.667" height="20" fill="white"/>
</clipPath>
</defs>
</svg>
