<svg xmlns="http://www.w3.org/2000/svg" width="41.414" height="39.718" viewBox="0 0 41.414 39.718">
  <path id="star_1_" data-name="star (1)" d="M9.034,39.17a2.148,2.148,0,0,1-2.09-2.624l2.6-11.437L.735,17.387a2.147,2.147,0,0,1,1.216-3.754L13.6,12.575,18.208,1.8a2.145,2.145,0,0,1,3.945,0l4.606,10.782,11.649,1.058a2.147,2.147,0,0,1,1.219,3.754l-8.805,7.721,2.6,11.437a2.144,2.144,0,0,1-3.192,2.317l-10.046-6L10.134,38.865a2.15,2.15,0,0,1-1.1.3Zm4.478-26.386a0,0,0,0,1,0,0Zm13.332,0,0,0S26.847,12.781,26.845,12.779Zm0,0" transform="translate(0.527 0.008)" fill="#ffa336" stroke="#fff" stroke-width="1"/>
</svg>
