<svg xmlns="http://www.w3.org/2000/svg" width="112" height="112" viewBox="0 0 112 112">
  <g id="Group_" data-name="Group " transform="translate(-116.458 -172.458)">
    <circle id="Ellipse_178" data-name="Ellipse 178" cx="56" cy="56" r="56" transform="translate(116.458 172.458)" fill="#e7f8f2"/>
    <g id="like" transform="translate(146.4 202.189)">
      <path id="Vector" d="M5.429,0A5.436,5.436,0,0,0,0,5.429V22.8a5.436,5.436,0,0,0,5.429,5.429h6.514a5.39,5.39,0,0,0,3.257-1.1V0Z" transform="translate(0 21.714)" fill="#05ac73"/>
      <path id="Vector-2" data-name="Vector" d="M34.743,29.857a4.815,4.815,0,0,0-1.414-3.418,5.391,5.391,0,0,0,1.39-4.145,5.613,5.613,0,0,0-5.663-4.923H15.643a31.221,31.221,0,0,0,1.728-8.686c0-4.71-4-8.686-6.514-8.686A6.83,6.83,0,0,0,6.92,1.322a1.091,1.091,0,0,0-.406.849V9.535L.261,23.082,0,23.215V46.488a14.227,14.227,0,0,0,5.429,1.283H25.36a5,5,0,0,0,4.92-3.793,4.885,4.885,0,0,0-.393-3.262A4.864,4.864,0,0,0,32.061,34.2,4.861,4.861,0,0,0,34.743,29.857Z" transform="translate(17.372)" fill="#05ac73"/>
    </g>
  </g>
</svg>
