<svg xmlns="http://www.w3.org/2000/svg" width="20.297" height="19.337" viewBox="0 0 20.297 19.337">
  <g id="upload" transform="translate(0 -1.695)">
    <g id="Group_18379" data-name="Group 18379" transform="translate(0 13.143)">
      <g id="Group_18378" data-name="Group 18378">
        <path id="Path_37182" data-name="Path 37182" d="M18.711,312.642v5.51a.794.794,0,0,1-.793.793H2.379a.794.794,0,0,1-.793-.793v-5.51H0v5.51a2.381,2.381,0,0,0,2.379,2.379h15.54a2.381,2.381,0,0,0,2.379-2.379v-5.51Z" transform="translate(0 -312.642)" fill="#677294"/>
      </g>
    </g>
    <g id="Group_18381" data-name="Group 18381" transform="translate(5.222 1.695)">
      <g id="Group_18380" data-name="Group 18380">
        <path id="Path_37183" data-name="Path 37183" d="M136.643.358l-4.927,4.927,1.121,1.121,3.013-3.013V15.75h1.586V3.393l3.013,3.013,1.121-1.121Z" transform="translate(-131.716 -0.358)" fill="#677294"/>
      </g>
    </g>
  </g>
</svg>